<svg width="57" height="57" viewBox="0 0 57 57" fill="none" xmlns="http://www.w3.org/2000/svg">
<path d="M21.875 33.1375C21.875 35.708 23.8625 37.775 26.3005 37.775H31.2825C33.4025 37.775 35.125 35.973 35.125 33.7205C35.125 31.309 34.065 30.4345 32.5015 29.878L24.525 27.0955C22.9615 26.539 21.9015 25.691 21.9015 23.253C21.9015 21.027 23.624 19.1985 25.744 19.1985H30.726C33.164 19.1985 35.1515 21.2655 35.1515 23.836" stroke="#292D32" stroke-width="3" stroke-linecap="round" stroke-linejoin="round"/>
<path d="M28.5 16.575V40.425" stroke="#292D32" stroke-width="3" stroke-linecap="round" stroke-linejoin="round"/>
<path d="M55 28.5C55 43.128 43.128 55 28.5 55C13.872 55 2 43.128 2 28.5C2 13.872 13.872 2 28.5 2" stroke="#292D32" stroke-width="3" stroke-linecap="round" stroke-linejoin="round"/>
<path d="M55 12.6V2H44.4" stroke="#292D32" stroke-width="3" stroke-linecap="round" stroke-linejoin="round"/>
<path d="M41.75 15.25L55 2" stroke="#292D32" stroke-width="3" stroke-linecap="round" stroke-linejoin="round"/>
</svg>
