<svg width="57" height="57" viewBox="0 0 57 57" fill="none" xmlns="http://www.w3.org/2000/svg">
<path d="M33.0783 5.7957L37.7417 15.1227C38.3777 16.421 40.0735 17.6664 41.5043 17.9048L49.9569 19.3092C55.3623 20.2101 56.6341 24.1316 52.7391 28.0002L46.1678 34.5714C45.0549 35.6843 44.4455 37.8306 44.79 39.3674L46.6712 47.502C48.1551 53.9408 44.737 56.4315 39.0401 53.0664L31.1175 48.3764C29.6866 47.5285 27.3284 47.5285 25.8711 48.3764L17.9484 53.0664C12.278 56.4315 8.8334 53.9143 10.3172 47.502L12.1985 39.3674C12.543 37.8306 11.9336 35.6843 10.8207 34.5714L4.24942 28.0002C0.380853 24.1316 1.62621 20.2101 7.03161 19.3092L15.4842 17.9048C16.8885 17.6664 18.5843 16.421 19.2202 15.1227L23.8838 5.7957C26.4275 0.734767 30.561 0.734767 33.0783 5.7957Z" stroke="#292D32" stroke-width="3" stroke-linecap="round" stroke-linejoin="round"/>
</svg>
