<svg width="65" height="65" viewBox="0 0 65 65" fill="none" xmlns="http://www.w3.org/2000/svg">
<g filter="url(#filter0_d_6_288)">
<path d="M23.6753 34.6748C23.6753 38.0933 26.2988 40.8493 29.5582 40.8493H36.2097C39.0452 40.8493 41.3507 38.4378 41.3507 35.4698C41.3507 32.2368 39.9462 31.0973 37.8527 30.3553L27.1733 26.6453C25.0798 25.9033 23.6753 24.7638 23.6753 21.5307C23.6753 18.5627 25.9808 16.1512 28.8162 16.1512H35.4677C38.7272 16.1512 41.3507 18.9072 41.3507 22.3257" stroke="#292D32" stroke-width="3" stroke-linecap="round" stroke-linejoin="round"/>
<path d="M32.5 12.6V44.4" stroke="#292D32" stroke-width="3" stroke-linecap="round" stroke-linejoin="round"/>
<path d="M6 20.55C6 7.3 11.3 2 24.55 2H40.45C53.7 2 59 7.3 59 20.55V36.45C59 49.7 53.7 55 40.45 55H24.55C11.3 55 6 49.7 6 36.45V31.2295" stroke="#292D32" stroke-width="3" stroke-linecap="round" stroke-linejoin="round"/>
</g>
<defs>
<filter id="filter0_d_6_288" x="0.5" y="0.5" width="64" height="64" filterUnits="userSpaceOnUse" color-interpolation-filters="sRGB">
<feFlood flood-opacity="0" result="BackgroundImageFix"/>
<feColorMatrix in="SourceAlpha" type="matrix" values="0 0 0 0 0 0 0 0 0 0 0 0 0 0 0 0 0 0 127 0" result="hardAlpha"/>
<feOffset dy="4"/>
<feGaussianBlur stdDeviation="2"/>
<feComposite in2="hardAlpha" operator="out"/>
<feColorMatrix type="matrix" values="0 0 0 0 0 0 0 0 0 0 0 0 0 0 0 0 0 0 0.25 0"/>
<feBlend mode="normal" in2="BackgroundImageFix" result="effect1_dropShadow_6_288"/>
<feBlend mode="normal" in="SourceGraphic" in2="effect1_dropShadow_6_288" result="shape"/>
</filter>
</defs>
</svg>
